#tb 0: 417/12500
#media_type 0: video
#codec_id 0: rawvideo
#dimensions 0: 640x320
#sar 0: 0/1
0,          0,          0,        1,   614400, 0x00000000
0,          1,          1,        1,   614400, 0x00000000
0,          2,          2,        1,   614400, 0x3c4ce011
0,          3,          3,        1,   614400, 0x16e83922
0,          4,          4,        1,   614400, 0x657a3d4d
0,          5,          5,        1,   614400, 0x933a08b0
0,          6,          6,        1,   614400, 0xfcd5f76e
0,          7,          7,        1,   614400, 0xd0990cf8
0,          8,          8,        1,   614400, 0x02131686
0,          9,          9,        1,   614400, 0x4cf53656
0,         10,         10,        1,   614400, 0x7d1960c0
0,         11,         11,        1,   614400, 0x5d9f696f
0,         12,         12,        1,   614400, 0x54e06663
0,         13,         13,        1,   614400, 0x4c1eade1
0,         14,         14,        1,   614400, 0x4bd3bfff
0,         15,         15,        1,   614400, 0xab86c041
0,         16,         16,        1,   614400, 0xbb2bfbf4
0,         17,         17,        1,   614400, 0x43822e15
0,         18,         18,        1,   614400, 0x835e352c
0,         19,         19,        1,   614400, 0x72cc538f
0,         20,         20,        1,   614400, 0x20bb6e30
0,         21,         21,        1,   614400, 0xfb079f52
0,         22,         22,        1,   614400, 0x759bc4d6
0,         23,         23,        1,   614400, 0xd116fc3b
0,         24,         24,        1,   614400, 0x5c06efd2
0,         25,         25,        1,   614400, 0x61641ecd
0,         26,         26,        1,   614400, 0x6c8d48a0
0,         27,         27,        1,   614400, 0x64725eed
0,         28,         28,        1,   614400, 0x88f9a8ca
0,         29,         29,        1,   614400, 0xcf1cbcd9
0,         30,         30,        1,   614400, 0x75a3ce24
0,         31,         31,        1,   614400, 0x3bf80ce7
0,         32,         32,        1,   614400, 0xd4011d7c
0,         33,         33,        1,   614400, 0xd569716b
0,         34,         34,        1,   614400, 0xfd626b6b
0,         35,         35,        1,   614400, 0xc856dbaf
0,         36,         36,        1,   614400, 0x0e56e68e
0,         37,         37,        1,   614400, 0x5b29ecc9
0,         38,         38,        1,   614400, 0xe83c0804
0,         39,         39,        1,   614400, 0xebdd3d61
0,         40,         40,        1,   614400, 0x7f4c5b56
0,         41,         41,        1,   614400, 0xb4019155
0,         42,         42,        1,   614400, 0xffdda515
0,         43,         43,        1,   614400, 0x5271c695
0,         44,         44,        1,   614400, 0x8526d3c1
0,         45,         45,        1,   614400, 0x5accf7a6
0,         46,         46,        1,   614400, 0x959017aa
0,         47,         47,        1,   614400, 0x22f450f6
0,         48,         48,        1,   614400, 0x2e3d6f37
0,         49,         49,        1,   614400, 0x0db9d89f
